# xmcd
#
# Track frame offsets: 
#        150
#        50081
#        99801
#        158698
#        219922
#
# Disc length: 3145 seconds
#
# Revision: 3
# Processed by: cddbd v1.5.2PL0 Copyright (c) Steve Scherf et al.
# Submitted via: ExactAudioCopy v1.0b3
#
DISCID=350c4705
DTITLE=Miles Davis - At Plugged Nickel, Chicago [CD1]
DYEAR=1965
DGENRE=Jazz
TTITLE0=Walkin'
TTITLE1=Agitation
TTITLE2=On Green Dolphin Street
TTITLE3=So What
TTITLE4=The Theme
EXTD=
EXTT0=
EXTT1=
EXTT2=
EXTT3=
EXTT4=
PLAYORDER=
